<svg width="24" height="24" viewBox="0 0 24 24" fill="none" xmlns="http://www.w3.org/2000/svg">
<path d="M12.24 2.39999C6.96001 2.39999 4.20001 5.75999 4.20001 9.47999C4.20001 11.28 5.16001 13.08 6.72001 14.04C7.20001 14.28 7.08001 14.04 7.44001 12.6C7.44001 12.48 7.44001 12.36 7.32001 12.24C5.16001 9.59999 6.96001 4.43999 12 4.43999C19.32 4.43999 17.88 14.52 13.32 14.52C12.36 14.64 11.52 13.92 11.52 12.96V12.48C12 11.16 12.36 9.95999 12.48 8.63999C12.48 6.11999 8.76001 6.47999 8.76001 9.83999C8.76001 10.44 8.88001 11.04 9.12001 11.52C9.12001 11.52 7.92001 16.44 7.68001 17.28C7.44001 18.72 7.56001 20.16 7.80001 21.48C7.68001 21.6 7.80001 21.6 7.80001 21.6H7.92001C8.76001 20.4 9.48001 19.2 9.96001 17.88C10.08 17.28 10.68 15.12 10.68 15.12C11.28 15.96 12.36 16.44 13.44 16.44C17.16 16.44 19.8 13.2 19.8 9.23999C19.8 5.27999 16.44 2.39999 12.24 2.39999Z" fill="#939393"/>
</svg>
