<svg width="24" height="24" viewBox="0 0 24 24" fill="none" xmlns="http://www.w3.org/2000/svg">
<path d="M19.2 10.84V7.99999C17.87 7.99999 16.855 7.64499 16.2 6.95499C15.5277 6.16751 15.1511 5.17026 15.135 4.13499V3.92999L12.45 3.86499C12.45 3.86499 12.45 3.97999 12.45 4.13499V15.4C12.3579 15.9033 12.1136 16.3662 11.7501 16.7262C11.3865 17.0862 10.9213 17.3261 10.4172 17.4133C9.91301 17.5006 9.39424 17.431 8.93086 17.2141C8.46749 16.9972 8.08183 16.6433 7.82595 16.2003C7.57006 15.7572 7.45628 15.2463 7.49996 14.7365C7.54363 14.2268 7.74267 13.7427 8.07019 13.3496C8.39771 12.9565 8.83795 12.6734 9.33147 12.5385C9.82499 12.4035 10.348 12.4233 10.83 12.595V9.84499C10.549 9.79895 10.2647 9.77554 9.97999 9.77499C8.95548 9.77499 7.95398 10.0788 7.10214 10.648C6.25029 11.2172 5.58636 12.0262 5.19429 12.9727C4.80223 13.9192 4.69965 14.9607 4.89952 15.9656C5.09939 16.9704 5.59274 17.8934 6.31718 18.6178C7.04161 19.3422 7.9646 19.8356 8.96942 20.0355C9.97424 20.2353 11.0158 20.1327 11.9623 19.7407C12.9088 19.3486 13.7178 18.6847 14.287 17.8328C14.8562 16.981 15.16 15.9795 15.16 14.955C15.1594 14.7427 15.1461 14.5307 15.12 14.32V9.74499C16.3409 10.5075 17.7614 10.8887 19.2 10.84Z" fill="#939393"/>
</svg>
